<?xml version="1.0" encoding="UTF-8" standalone="no" ?>
<!DOCTYPE svg PUBLIC "-//W3C//DTD SVG 1.1//EN" "http://www.w3.org/Graphics/SVG/1.1/DTD/svg11.dtd">
<svg xmlns="http://www.w3.org/2000/svg" xmlns:xlink="http://www.w3.org/1999/xlink" version="1.1" width="640" height="640" viewBox="0 0 640 640" xml:space="preserve">
<desc>Created with Fabric.js 5.3.0</desc>
<defs>
</defs>
<g transform="matrix(2.0119196908 0.8047104643 -0.8047104643 2.0119196908 155.780901462 319.9999993582)" id="xpzHDwuKuwnN9VLT9ebn_"  >
<path style="stroke: rgb(81,146,203); stroke-width: 0; stroke-dasharray: none; stroke-linecap: butt; stroke-dashoffset: 0; stroke-linejoin: miter; stroke-miterlimit: 4; fill: rgb(16,49,107); fill-rule: nonzero; opacity: 1;" vector-effect="non-scaling-stroke"  transform=" translate(0, 0)" d="M 0 -61.09785 C 33.72602 -61.09785 61.09785 -33.72601 61.09785 0 C 61.09785 33.72602 33.72601 61.09785 0 61.09785 C -33.72602 61.09785 -61.09785 33.72601 -61.09785 0 C -61.09785 -33.72602 -33.72601 -61.09785 0 -61.09785 z" stroke-linecap="round" />
</g>
<g transform="matrix(1.4142365758 0.5656542738 -0.5656542738 1.4142365758 155.780901462 319.9999993582)" id="uGf_BBAYtsB6-UEXWbGsr"  >
<path style="stroke: rgb(81,33,168); stroke-width: 0; stroke-dasharray: none; stroke-linecap: butt; stroke-dashoffset: 0; stroke-linejoin: miter; stroke-miterlimit: 4; fill: rgb(255,255,255); fill-rule: nonzero; opacity: 1;" vector-effect="non-scaling-stroke"  transform=" translate(0, 0)" d="M 0 -60.84327 C 33.58549 -60.84327 60.84327 -33.58548 60.84327 0 C 60.84327 33.58549 33.58548 60.84327 0 60.84327 C -33.58549 60.84327 -60.84327 33.58548 -60.84327 0 C -60.84327 -33.58549 -33.58548 -60.84327 0 -60.84327 z" stroke-linecap="round" />
</g>
<g transform="matrix(0.438278682 0.1752989661 -1.7529896611 4.3827868199 334.0154069047 177.4052041176)" id="PidC8OMQ2kQ2RaFq2B4Nm"  >
<path style="stroke: rgb(242,136,241); stroke-width: 0; stroke-dasharray: none; stroke-linecap: butt; stroke-dashoffset: 0; stroke-linejoin: miter; stroke-miterlimit: 4; fill: rgb(16,49,107); fill-rule: nonzero; opacity: 1;" vector-effect="non-scaling-stroke"  transform=" translate(0, 0)" d="M -42.07048 -42.07048 L 42.07048999999999 -42.07048 L 42.07048999999999 42.07048999999999 L -42.07048 42.07048999999999 z" stroke-linecap="round" />
</g>
<g transform="matrix(-2.0119196908 -0.8047104643 0.8047104643 -2.0119196908 484.219098538 319.9999993582)" id="oDsG2xoDd15EUgHGmpbwu"  >
<path style="stroke: rgb(81,146,203); stroke-width: 0; stroke-dasharray: none; stroke-linecap: butt; stroke-dashoffset: 0; stroke-linejoin: miter; stroke-miterlimit: 4; fill: rgb(255,206,99); fill-rule: nonzero; opacity: 1;" vector-effect="non-scaling-stroke"  transform=" translate(0, 0)" d="M 0 -61.09785 C 33.72602 -61.09785 61.09785 -33.72601 61.09785 0 C 61.09785 33.72602 33.72601 61.09785 0 61.09785 C -33.72602 61.09785 -61.09785 33.72601 -61.09785 0 C -61.09785 -33.72602 -33.72601 -61.09785 0 -61.09785 z" stroke-linecap="round" />
</g>
<g transform="matrix(-1.4142365758 -0.5656542738 0.5656542738 -1.4142365758 484.219098538 319.9999993582)" id="2ftIJvwUU1SfufBef_UQD"  >
<path style="stroke: rgb(81,33,168); stroke-width: 0; stroke-dasharray: none; stroke-linecap: butt; stroke-dashoffset: 0; stroke-linejoin: miter; stroke-miterlimit: 4; fill: rgb(255,255,255); fill-rule: nonzero; opacity: 1;" vector-effect="non-scaling-stroke"  transform=" translate(0, 0)" d="M 0 -60.84327 C 33.58549 -60.84327 60.84327 -33.58548 60.84327 0 C 60.84327 33.58549 33.58548 60.84327 0 60.84327 C -33.58549 60.84327 -60.84327 33.58548 -60.84327 0 C -60.84327 -33.58549 -33.58548 -60.84327 0 -60.84327 z" stroke-linecap="round" />
</g>
<g transform="matrix(-0.4382786819 -0.1752989661 1.7529896611 -4.3827868199 305.9845930953 462.5947945987)" id="e2prrrNWfO0H6D0SrsxzV"  >
<path style="stroke: rgb(242,136,241); stroke-width: 0; stroke-dasharray: none; stroke-linecap: butt; stroke-dashoffset: 0; stroke-linejoin: miter; stroke-miterlimit: 4; fill: rgb(255,206,99); fill-rule: nonzero; opacity: 1;" vector-effect="non-scaling-stroke"  transform=" translate(0, 0)" d="M -42.07048 -42.07048 L 42.07048999999999 -42.07048 L 42.07048999999999 42.07048999999999 L -42.07048 42.07048999999999 z" stroke-linecap="round" />
</g>
</svg>