<?xml version="1.0" encoding="UTF-8" standalone="no" ?>
<!DOCTYPE svg PUBLIC "-//W3C//DTD SVG 1.1//EN" "http://www.w3.org/Graphics/SVG/1.1/DTD/svg11.dtd">
<svg xmlns="http://www.w3.org/2000/svg" xmlns:xlink="http://www.w3.org/1999/xlink" version="1.1" width="640" height="640" viewBox="0 0 640 640" xml:space="preserve">
<desc>Created with Fabric.js 5.3.0</desc>
<defs>
</defs>
<g transform="matrix(1 0 0 1 236.1143662927 206.6978684899)" id="0_Sc7Cz3PxVDSX4I9uOje"  >
<path style="stroke: rgb(242,136,241); stroke-width: 0; stroke-dasharray: none; stroke-linecap: butt; stroke-dashoffset: 0; stroke-linejoin: miter; stroke-miterlimit: 4; fill: rgb(16,49,107); fill-rule: nonzero; opacity: 1;" vector-effect="non-scaling-stroke"  transform=" translate(-210.1262251847, -226.6042597705)" d="M 188.36223 200.80973 C 221.05401 216.05415 244.59885000000003 242.97697 256.34781 274.30026 L 384.25612 0 L 420.25245 16.78537 L 252.42022 376.70276 C 252.41308 376.71809 252.40594 376.73342 252.39879 376.74874 C 221.51371999999998 442.98199 142.69304 471.67037 76.45979 440.7853 C 10.22654 409.90023 -18.461839999999995 331.07955000000004 12.423230000000004 264.84630000000004 C 43.3083 198.61305000000004 122.12898 169.92467000000005 188.36223 200.80974000000003 z M 48.41956 281.63165 C 26.800009999999997 327.99492999999995 46.88187 383.1694 93.24515 404.78895 C 139.60843 426.4085 194.78289999999998 406.32664 216.40245 359.96336 C 216.40245 359.96336 216.40245 359.96336 216.40245 359.96335000000005 L 216.40245 359.96335000000005 L 216.41143 359.9440900000001 C 238.01644 313.58479000000005 217.93372 258.4226100000001 171.57686 236.80605000000008 C 125.21358000000001 215.18650000000008 70.03911000000001 235.2683600000001 48.419560000000004 281.63164000000006 z" stroke-linecap="round" />
</g>
<g transform="matrix(1 0 0 1 403.8856337073 433.3021315101)" id="PKlYyrifOIVGSz6NUeth_"  >
<path style="stroke: rgb(242,136,241); stroke-width: 0; stroke-dasharray: none; stroke-linecap: butt; stroke-dashoffset: 0; stroke-linejoin: miter; stroke-miterlimit: 4; fill: rgb(255,206,99); fill-rule: nonzero; opacity: 1;" vector-effect="non-scaling-stroke"  transform=" translate(-210.1262251847, -226.6042597689)" d="M 231.89022 252.39879 C 199.19844 237.15437 175.65359999999998 210.23155 163.90464 178.90825999999998 L 35.99633 453.20851999999996 L 0 436.42314999999996 L 167.83223 76.50575999999995 C 167.83937 76.49042999999995 167.84651000000002 76.47510999999996 167.85366000000002 76.45977999999995 C 198.73873000000003 10.226529999999954 277.55941 -18.46185000000004 343.79266 12.423219999999958 C 410.02591 43.30828999999996 438.71429 122.12896999999995 407.82922 188.36221999999995 C 376.94415000000004 254.59546999999995 298.12347 283.2838499999999 231.89022000000003 252.39877999999993 z M 371.83289 171.57687 C 393.45244 125.21359000000001 373.37058 70.03912000000001 327.00730000000004 48.41957000000001 C 280.64402000000007 26.800020000000007 225.46955000000003 46.88188000000001 203.85000000000002 93.24516 C 203.85000000000002 93.24516 203.85000000000002 93.24516 203.85000000000002 93.24517 L 203.85000000000002 93.24517 L 203.84102000000001 93.26442 C 182.23601000000002 139.62372 202.31873000000002 194.78591 248.67559 216.40246000000002 C 295.03887 238.02201000000002 350.21334 217.94015000000002 371.83289 171.57687 z" stroke-linecap="round" />
</g>
</svg>